<svg width="532" height="55" viewBox="0 0 532 55" fill="none" xmlns="http://www.w3.org/2000/svg">
<g id="Group 11">
<path id="Fill 1" fill-rule="evenodd" clip-rule="evenodd" d="M0 54.9999H24.5882L0 23.5713V54.9999Z" fill="#DE2887"/>
<path id="Fill 2" fill-rule="evenodd" clip-rule="evenodd" d="M13.4119 0L56.3584 54.4388H87.1766L44.2316 0H13.4119Z" fill="#DE2887"/>
<path id="Fill 3" fill-rule="evenodd" clip-rule="evenodd" d="M75.4412 0L118.386 54.4388H149.206L106.261 0H75.4412Z" fill="#DE2887"/>
<path id="Fill 4" fill-rule="evenodd" clip-rule="evenodd" d="M136.912 0L179.856 54.4388H210.677L167.731 0H136.912Z" fill="#DE2887"/>
<path id="Fill 5" fill-rule="evenodd" clip-rule="evenodd" d="M198.941 0L241.886 54.4388H272.706L229.761 0H198.941Z" fill="#DE2887"/>
<path id="Fill 6" fill-rule="evenodd" clip-rule="evenodd" d="M260.971 0L303.917 54.4388H334.735L291.79 0H260.971Z" fill="#DE2887"/>
<path id="Fill 7" fill-rule="evenodd" clip-rule="evenodd" d="M323 0L365.945 54.4388H396.765L353.82 0H323Z" fill="#DE2887"/>
<path id="Fill 8" fill-rule="evenodd" clip-rule="evenodd" d="M385.029 0L427.973 54.4388H458.794L415.848 0H385.029Z" fill="#DE2887"/>
<path id="Fill 9" fill-rule="evenodd" clip-rule="evenodd" d="M447.059 0L490.004 54.4388H520.824L477.879 0H447.059Z" fill="#DE2887"/>
<path id="Fill 10" fill-rule="evenodd" clip-rule="evenodd" d="M509.088 0L532 29.1837V10C532 4.47716 527.523 0 522 0H509.088Z" fill="#DE2887"/>
</g>
</svg>
